<svg xmlns="http://www.w3.org/2000/svg" xmlns:xlink="http://www.w3.org/1999/xlink" width="874" zoomAndPan="magnify" viewBox="0 0 655.5 397.499983" height="530" preserveAspectRatio="xMidYMid meet" version="1.0"><defs><g/><clipPath id="189747c063"><path d="M 0.160156 0 L 654.839844 0 L 654.839844 397 L 0.160156 397 Z M 0.160156 0 " clip-rule="nonzero"/></clipPath><clipPath id="6f4aa9dbfb"><path d="M 82.742188 191 L 107 191 L 107 204 L 82.742188 204 Z M 82.742188 191 " clip-rule="nonzero"/></clipPath><clipPath id="06e25b173c"><path d="M 114.496094 166.203125 L 162.4375 166.203125 L 162.4375 267.328125 L 114.496094 267.328125 Z M 114.496094 166.203125 " clip-rule="nonzero"/></clipPath><clipPath id="9fdf09936f"><path d="M 162.742188 137.808594 L 222.8125 137.808594 L 222.8125 228.496094 L 162.742188 228.496094 Z M 162.742188 137.808594 " clip-rule="nonzero"/></clipPath><clipPath id="dcbcf54832"><path d="M 157.246094 129.5625 L 222.8125 129.5625 L 222.8125 142.996094 L 157.246094 142.996094 Z M 157.246094 129.5625 " clip-rule="nonzero"/></clipPath></defs><g clip-path="url(#189747c063)"><path fill="#ffffff" d="M 0.160156 0 L 654.839844 0 L 654.839844 397 L 0.160156 397 Z M 0.160156 0 " fill-opacity="1" fill-rule="nonzero"/><path fill="#ede9e9" d="M 0.160156 0 L 654.839844 0 L 654.839844 397 L 0.160156 397 Z M 0.160156 0 " fill-opacity="1" fill-rule="nonzero"/></g><path fill="#69359c" d="M 84.445312 213.1875 C 84.445312 213.1875 96.097656 204.558594 108.003906 206.382812 C 108.003906 206.382812 95.347656 191.566406 84.445312 213.1875 " fill-opacity="1" fill-rule="nonzero"/><g clip-path="url(#6f4aa9dbfb)"><path fill="#69359c" d="M 82.742188 203.03125 C 82.742188 203.03125 91.15625 189.808594 106.613281 197.203125 C 106.613281 197.203125 90.804688 181.835938 82.742188 203.03125 " fill-opacity="1" fill-rule="nonzero"/></g><g clip-path="url(#06e25b173c)"><path fill="#69359c" d="M 127.644531 194.023438 C 127.644531 194.023438 138.207031 174.671875 152.175781 192.535156 C 152.175781 192.535156 140.226562 182.390625 127.644531 194.023438 Z M 129.03125 203.203125 C 129.03125 203.203125 136.742188 185.304688 153.546875 202.738281 C 153.546875 202.738281 137.871094 197.523438 129.03125 203.203125 Z M 127.894531 227.277344 L 120.519531 224.804688 C 130.640625 221.742188 127.894531 227.277344 127.894531 227.277344 Z M 158.496094 166.421875 C 139.382812 173.96875 131.65625 175.804688 118.414062 176.472656 L 114.738281 197.851562 L 120.066406 201.484375 L 114.769531 225.164062 L 123.128906 228.507812 L 122.835938 236.746094 C 122.835938 236.746094 140.109375 238.0625 149.859375 224.640625 C 149.859375 224.640625 144.125 244.285156 124.660156 246.546875 L 129.359375 255.054688 L 127.167969 267.441406 C 138.742188 265.699219 151.863281 255.894531 158.625 234.070312 C 167.230469 206.304688 158.496094 166.421875 158.496094 166.421875 " fill-opacity="1" fill-rule="nonzero"/></g><path fill="#69359c" d="M 142.726562 163.007812 C 142.726562 163.007812 155.550781 157.796875 165.648438 161.816406 C 165.648438 161.816406 161.144531 142.003906 142.726562 163.007812 " fill-opacity="1" fill-rule="nonzero"/><path fill="#69359c" d="M 142.457031 155.753906 C 142.457031 155.753906 150.675781 146.292969 164.910156 148.652344 L 165.132812 144.683594 C 165.132812 144.683594 150.230469 142.839844 142.457031 155.753906 " fill-opacity="1" fill-rule="nonzero"/><g clip-path="url(#9fdf09936f)"><path fill="#69359c" d="M 192.246094 154.359375 L 193.453125 150.574219 C 193.453125 150.574219 208.035156 154.171875 210.6875 169.007812 C 210.6875 169.007812 206.382812 157.234375 192.246094 154.359375 Z M 186.855469 166.390625 C 186.855469 166.390625 198.136719 149.496094 207.84375 175.6875 C 207.84375 175.6875 197.722656 166.242188 186.855469 166.390625 Z M 175.449219 188.195312 L 168.886719 182.3125 C 179.363281 184.5 175.449219 188.195312 175.449219 188.195312 Z M 222.839844 137.894531 C 211.960938 140.898438 197.386719 140.832031 183.003906 138.792969 L 174.039062 158.554688 L 176.300781 165.046875 L 163.207031 181.429688 L 169.546875 187.804688 L 166.121094 195.277344 C 166.121094 195.277344 183.402344 193.703125 189.582031 212.4375 C 189.582031 212.4375 179.234375 201.785156 166.769531 204.496094 L 170.535156 212.992188 L 162.980469 227.304688 C 175.015625 230.988281 192.917969 225.972656 206.539062 203.542969 C 221.632812 178.703125 222.839844 137.894531 222.839844 137.894531 " fill-opacity="1" fill-rule="nonzero"/></g><path fill="#69359c" d="M 158.496094 166.421875 C 158.496094 166.421875 130.90625 179.203125 86.496094 177.003906 C 86.496094 177.003906 109.363281 181.035156 131.566406 177.738281 L 157.511719 169.089844 L 158.496094 166.421875 " fill-opacity="1" fill-rule="nonzero"/><g clip-path="url(#dcbcf54832)"><path fill="#69359c" d="M 222.839844 137.894531 C 222.839844 137.894531 188.757812 144.851562 157.285156 129.5625 C 157.285156 129.5625 171.757812 140.296875 193.453125 142.707031 L 220.191406 142.320312 L 222.839844 137.894531 " fill-opacity="1" fill-rule="nonzero"/></g><g fill="#69359c" fill-opacity="1"><g transform="translate(227.955225, 217.22674)"><g><path d="M 5.484375 -36.9375 L 13.078125 -36.9375 L 13.078125 0 L 5.484375 0 Z M 5.484375 -36.9375 "/></g></g></g><g fill="#69359c" fill-opacity="1"><g transform="translate(246.453131, 217.22674)"><g><path d="M 3.421875 -28.375 L 10.84375 -28.375 L 10.84375 0 L 3.421875 0 Z M 24.03125 -29 C 25.78125 -29 27.394531 -28.769531 28.875 -28.3125 C 30.363281 -27.863281 31.660156 -27.160156 32.765625 -26.203125 C 33.867188 -25.253906 34.722656 -24.046875 35.328125 -22.578125 C 35.941406 -21.109375 36.25 -19.367188 36.25 -17.359375 L 36.25 0 L 28.828125 0 L 28.828125 -16.046875 C 28.828125 -18.441406 28.242188 -20.203125 27.078125 -21.328125 C 25.921875 -22.453125 24.03125 -23.015625 21.40625 -23.015625 C 19.425781 -23.015625 17.632812 -22.628906 16.03125 -21.859375 C 14.4375 -21.097656 13.144531 -20.140625 12.15625 -18.984375 C 11.164062 -17.828125 10.597656 -16.617188 10.453125 -15.359375 L 10.390625 -18.265625 C 10.578125 -19.597656 11.015625 -20.890625 11.703125 -22.140625 C 12.390625 -23.398438 13.3125 -24.550781 14.46875 -25.59375 C 15.632812 -26.644531 17.015625 -27.472656 18.609375 -28.078125 C 20.210938 -28.691406 22.019531 -29 24.03125 -29 Z M 24.03125 -29 "/></g></g></g><g fill="#69359c" fill-opacity="1"><g transform="translate(286.018102, 217.22674)"><g><path d="M 1.421875 -28.375 L 23.46875 -28.375 L 23.46875 -22.609375 L 1.421875 -22.609375 Z M 8.734375 -36.140625 L 16.15625 -36.140625 L 16.15625 0 L 8.734375 0 Z M 8.734375 -36.140625 "/></g></g></g><g fill="#69359c" fill-opacity="1"><g transform="translate(310.796167, 217.22674)"><g><path d="M 29.296875 -9.421875 L 36.484375 -9.421875 C 36.179688 -7.484375 35.375 -5.75 34.0625 -4.21875 C 32.75 -2.695312 30.96875 -1.5 28.71875 -0.625 C 26.46875 0.25 23.726562 0.6875 20.5 0.6875 C 16.882812 0.6875 13.6875 0.109375 10.90625 -1.046875 C 8.125 -2.210938 5.953125 -3.898438 4.390625 -6.109375 C 2.835938 -8.316406 2.0625 -10.984375 2.0625 -14.109375 C 2.0625 -17.222656 2.820312 -19.894531 4.34375 -22.125 C 5.863281 -24.351562 7.984375 -26.054688 10.703125 -27.234375 C 13.421875 -28.410156 16.609375 -29 20.265625 -29 C 23.992188 -29 27.09375 -28.410156 29.5625 -27.234375 C 32.039062 -26.054688 33.878906 -24.273438 35.078125 -21.890625 C 36.273438 -19.515625 36.78125 -16.476562 36.59375 -12.78125 L 9.53125 -12.78125 C 9.71875 -11.34375 10.257812 -10.03125 11.15625 -8.84375 C 12.050781 -7.664062 13.269531 -6.734375 14.8125 -6.046875 C 16.351562 -5.367188 18.191406 -5.03125 20.328125 -5.03125 C 22.679688 -5.03125 24.648438 -5.4375 26.234375 -6.25 C 27.816406 -7.070312 28.835938 -8.128906 29.296875 -9.421875 Z M 19.921875 -23.34375 C 17.179688 -23.34375 14.953125 -22.742188 13.234375 -21.546875 C 11.523438 -20.347656 10.425781 -18.875 9.9375 -17.125 L 29.234375 -17.125 C 29.046875 -19.03125 28.140625 -20.539062 26.515625 -21.65625 C 24.898438 -22.78125 22.703125 -23.34375 19.921875 -23.34375 Z M 19.921875 -23.34375 "/></g></g></g><g fill="#69359c" fill-opacity="1"><g transform="translate(349.504756, 217.22674)"><g><path d="M 3.421875 -28.375 L 10.84375 -28.375 L 10.84375 0 L 3.421875 0 Z M 21.75 -22.265625 C 19.625 -22.265625 17.78125 -21.851562 16.21875 -21.03125 C 14.65625 -20.21875 13.394531 -19.21875 12.4375 -18.03125 C 11.488281 -16.851562 10.828125 -15.710938 10.453125 -14.609375 L 10.390625 -17.75 C 10.429688 -18.207031 10.582031 -18.882812 10.84375 -19.78125 C 11.113281 -20.675781 11.515625 -21.644531 12.046875 -22.6875 C 12.578125 -23.738281 13.28125 -24.75 14.15625 -25.71875 C 15.03125 -26.6875 16.09375 -27.472656 17.34375 -28.078125 C 18.601562 -28.691406 20.070312 -29 21.75 -29 Z M 21.75 -22.265625 "/></g></g></g><g fill="#69359c" fill-opacity="1"><g transform="translate(372.39877, 217.22674)"><g><path d="M 3.421875 -28.375 L 10.84375 -28.375 L 10.84375 0 L 3.421875 0 Z M 24.03125 -29 C 25.78125 -29 27.394531 -28.769531 28.875 -28.3125 C 30.363281 -27.863281 31.660156 -27.160156 32.765625 -26.203125 C 33.867188 -25.253906 34.722656 -24.046875 35.328125 -22.578125 C 35.941406 -21.109375 36.25 -19.367188 36.25 -17.359375 L 36.25 0 L 28.828125 0 L 28.828125 -16.046875 C 28.828125 -18.441406 28.242188 -20.203125 27.078125 -21.328125 C 25.921875 -22.453125 24.03125 -23.015625 21.40625 -23.015625 C 19.425781 -23.015625 17.632812 -22.628906 16.03125 -21.859375 C 14.4375 -21.097656 13.144531 -20.140625 12.15625 -18.984375 C 11.164062 -17.828125 10.597656 -16.617188 10.453125 -15.359375 L 10.390625 -18.265625 C 10.578125 -19.597656 11.015625 -20.890625 11.703125 -22.140625 C 12.390625 -23.398438 13.3125 -24.550781 14.46875 -25.59375 C 15.632812 -26.644531 17.015625 -27.472656 18.609375 -28.078125 C 20.210938 -28.691406 22.019531 -29 24.03125 -29 Z M 48.765625 -29 C 50.515625 -29 52.128906 -28.769531 53.609375 -28.3125 C 55.097656 -27.863281 56.394531 -27.160156 57.5 -26.203125 C 58.601562 -25.253906 59.46875 -24.046875 60.09375 -22.578125 C 60.71875 -21.109375 61.03125 -19.367188 61.03125 -17.359375 L 61.03125 0 L 53.609375 0 L 53.609375 -16.046875 C 53.609375 -18.441406 53.019531 -20.203125 51.84375 -21.328125 C 50.664062 -22.453125 48.757812 -23.015625 46.125 -23.015625 C 44.144531 -23.015625 42.351562 -22.628906 40.75 -21.859375 C 39.15625 -21.097656 37.863281 -20.140625 36.875 -18.984375 C 35.882812 -17.828125 35.335938 -16.617188 35.234375 -15.359375 L 35.109375 -18.4375 C 35.296875 -19.695312 35.75 -20.953125 36.46875 -22.203125 C 37.195312 -23.460938 38.148438 -24.601562 39.328125 -25.625 C 40.515625 -26.65625 41.894531 -27.472656 43.46875 -28.078125 C 45.050781 -28.691406 46.816406 -29 48.765625 -29 Z M 48.765625 -29 "/></g></g></g><g fill="#69359c" fill-opacity="1"><g transform="translate(436.741807, 217.22674)"><g><path d="M 17.25 0.625 C 14.425781 0.625 11.863281 0.0078125 9.5625 -1.21875 C 7.257812 -2.457031 5.429688 -4.191406 4.078125 -6.421875 C 2.734375 -8.648438 2.0625 -11.226562 2.0625 -14.15625 C 2.0625 -17.164062 2.742188 -19.773438 4.109375 -21.984375 C 5.484375 -24.191406 7.335938 -25.910156 9.671875 -27.140625 C 12.015625 -28.378906 14.671875 -29 17.640625 -29 C 20.910156 -29 23.546875 -28.34375 25.546875 -27.03125 C 27.546875 -25.71875 29 -23.9375 29.90625 -21.6875 C 30.820312 -19.445312 31.28125 -16.9375 31.28125 -14.15625 C 31.28125 -12.476562 31.015625 -10.773438 30.484375 -9.046875 C 29.953125 -7.316406 29.132812 -5.71875 28.03125 -4.25 C 26.925781 -2.789062 25.476562 -1.613281 23.6875 -0.71875 C 21.90625 0.175781 19.757812 0.625 17.25 0.625 Z M 19.640625 -5.078125 C 21.890625 -5.078125 23.832031 -5.457031 25.46875 -6.21875 C 27.101562 -6.976562 28.359375 -8.039062 29.234375 -9.40625 C 30.109375 -10.78125 30.546875 -12.363281 30.546875 -14.15625 C 30.546875 -16.101562 30.097656 -17.75 29.203125 -19.09375 C 28.304688 -20.445312 27.050781 -21.472656 25.4375 -22.171875 C 23.820312 -22.878906 21.890625 -23.234375 19.640625 -23.234375 C 16.484375 -23.234375 14.03125 -22.40625 12.28125 -20.75 C 10.53125 -19.09375 9.65625 -16.894531 9.65625 -14.15625 C 9.65625 -12.332031 10.070312 -10.742188 10.90625 -9.390625 C 11.738281 -8.035156 12.90625 -6.976562 14.40625 -6.21875 C 15.914062 -5.457031 17.660156 -5.078125 19.640625 -5.078125 Z M 30.546875 -28.375 L 37.96875 -28.375 L 37.96875 0 L 31.0625 0 C 31.0625 0 31.015625 -0.367188 30.921875 -1.109375 C 30.828125 -1.859375 30.738281 -2.800781 30.65625 -3.9375 C 30.582031 -5.082031 30.546875 -6.207031 30.546875 -7.3125 Z M 30.546875 -28.375 "/></g></g></g><g fill="#69359c" fill-opacity="1"><g transform="translate(478.019532, 217.22674)"><g><path d="M 2.28125 -9.421875 L 9.140625 -9.421875 C 9.554688 -8.128906 10.421875 -7.070312 11.734375 -6.25 C 13.046875 -5.4375 14.769531 -5.03125 16.90625 -5.03125 C 18.34375 -5.03125 19.460938 -5.160156 20.265625 -5.421875 C 21.066406 -5.691406 21.617188 -6.082031 21.921875 -6.59375 C 22.222656 -7.101562 22.375 -7.679688 22.375 -8.328125 C 22.375 -9.128906 22.125 -9.75 21.625 -10.1875 C 21.132812 -10.625 20.375 -10.972656 19.34375 -11.234375 C 18.320312 -11.503906 17.015625 -11.753906 15.421875 -11.984375 C 13.816406 -12.253906 12.269531 -12.578125 10.78125 -12.953125 C 9.300781 -13.335938 7.988281 -13.84375 6.84375 -14.46875 C 5.707031 -15.101562 4.804688 -15.90625 4.140625 -16.875 C 3.472656 -17.84375 3.140625 -19.03125 3.140625 -20.4375 C 3.140625 -21.8125 3.472656 -23.03125 4.140625 -24.09375 C 4.804688 -25.15625 5.738281 -26.046875 6.9375 -26.765625 C 8.132812 -27.492188 9.539062 -28.046875 11.15625 -28.421875 C 12.78125 -28.804688 14.523438 -29 16.390625 -29 C 19.203125 -29 21.539062 -28.585938 23.40625 -27.765625 C 25.269531 -26.953125 26.664062 -25.8125 27.59375 -24.34375 C 28.53125 -22.882812 29 -21.203125 29 -19.296875 L 22.4375 -19.296875 C 22.132812 -20.703125 21.523438 -21.71875 20.609375 -22.34375 C 19.691406 -22.976562 18.285156 -23.296875 16.390625 -23.296875 C 14.523438 -23.296875 13.113281 -23.007812 12.15625 -22.4375 C 11.207031 -21.863281 10.734375 -21.082031 10.734375 -20.09375 C 10.734375 -19.289062 11.023438 -18.671875 11.609375 -18.234375 C 12.203125 -17.796875 13.078125 -17.441406 14.234375 -17.171875 C 15.398438 -16.910156 16.859375 -16.628906 18.609375 -16.328125 C 20.097656 -16.023438 21.515625 -15.679688 22.859375 -15.296875 C 24.210938 -14.921875 25.421875 -14.4375 26.484375 -13.84375 C 27.554688 -13.25 28.40625 -12.46875 29.03125 -11.5 C 29.65625 -10.53125 29.96875 -9.304688 29.96875 -7.828125 C 29.96875 -5.992188 29.441406 -4.445312 28.390625 -3.1875 C 27.347656 -1.9375 25.859375 -0.976562 23.921875 -0.3125 C 21.984375 0.351562 19.660156 0.6875 16.953125 0.6875 C 14.554688 0.6875 12.492188 0.429688 10.765625 -0.078125 C 9.035156 -0.597656 7.597656 -1.265625 6.453125 -2.078125 C 5.304688 -2.898438 4.421875 -3.773438 3.796875 -4.703125 C 3.171875 -5.640625 2.742188 -6.523438 2.515625 -7.359375 C 2.285156 -8.203125 2.207031 -8.890625 2.28125 -9.421875 Z M 2.28125 -9.421875 "/></g></g></g><g fill="#69359c" fill-opacity="1"><g transform="translate(510.219596, 217.22674)"><g><path d="M 3.9375 -39.796875 L 11.359375 -39.796875 L 11.359375 0 L 3.9375 0 Z M 35.28125 -28.375 L 18.390625 -13.46875 L 18.5625 -18.046875 L 36.59375 0 L 27.171875 0 L 11.53125 -15.921875 L 25.171875 -28.375 Z M 35.28125 -28.375 "/></g></g></g></svg>